# Hair shell from hm08 helper-hair (MakeHuman CC0 basemesh helper)
# Official rule: hair is MHCLO clothes in the hair folder, fitted to helper-hair.
# Bangs are a separate clothes piece in community packs (straight_bangs, bob_with_bangs).
# https://static.makehumancommunity.org/makehuman/docs/hairstyles_and_clothes.html
o bangs
g bangs
v 0.01268 8.11475 1.38991
v 0.23788 8.11245 1.37041
v 0.02016 7.96024 1.48221
v 0.31106 7.95934 1.42221
v 0.02447 7.77282 1.55283
v 0.37377 7.75952 1.46013
v 0.02214 7.47803 1.60809
v 0.42004 7.45183 1.47139
v 0.10620 7.14377 1.62584
v 0.43550 7.07567 1.45844
v 0.25324 8.10530 1.35778
v 0.50804 8.11020 1.21928
v 0.32332 7.95360 1.41188
v 0.66212 7.96620 1.25168
v 0.40373 7.74766 1.45707
v 0.73293 7.72476 1.25987
v 0.44438 7.43975 1.47324
v 0.76468 7.39245 1.27394
v 0.44730 7.07493 1.46480
v 0.76670 6.97193 1.27060
v 0.52777 8.11910 1.21944
v 0.66577 8.16920 1.03144
v 0.68097 7.95847 1.24131
v 0.81257 7.96857 1.01961
v 0.73946 7.73036 1.24367
v 0.83776 7.73306 0.96397
v -0.01591 8.11105 1.39133
v -0.24111 8.10875 1.37183
v -0.02278 7.95692 1.48308
v -0.31368 7.95602 1.42308
v -0.02652 7.76996 1.55292
v -0.37582 7.75666 1.46022
v -0.02503 7.47444 1.60739
v -0.42293 7.44824 1.47069
v -0.10983 7.13941 1.62457
v -0.43913 7.07131 1.45717
v -0.25109 8.10744 1.35743
v -0.50589 8.11234 1.21893
v -0.32435 7.95239 1.41193
v -0.66315 7.96499 1.25173
v -0.40577 7.74472 1.45652
v -0.73497 7.72182 1.25932
v -0.44453 7.43952 1.47316
v -0.76483 7.39222 1.27386
v -0.44705 7.07527 1.46495
v -0.76645 6.97227 1.27075
v -0.53315 8.11596 1.21612
v -0.67115 8.16606 1.02812
v -0.68564 7.95375 1.23701
v -0.81724 7.96385 1.01531
v -0.74270 7.72421 1.23845
v -0.84100 7.72691 0.95875
v 0.02343 7.61195 1.60894
v 0.24840 7.64372 1.58061
v 0.04036 7.28616 1.74797
v 0.33008 7.39079 1.66050
v 0.05956 6.99389 1.84636
v 0.40662 7.10188 1.72206
v 0.06797 6.68202 1.90244
v 0.46343 6.75823 1.73925
v 0.15752 6.34439 1.91888
v 0.48347 6.40177 1.71917
v 0.30773 7.64885 1.55350
v 0.55416 7.89663 1.35384
v 0.37957 7.39558 1.63653
v 0.70893 7.69060 1.40465
v 0.47038 7.08613 1.70722
v 0.78642 7.41600 1.42064
v 0.52170 6.72221 1.72965
v 0.82682 7.03667 1.44024
v 0.52457 6.36325 1.71723
v 0.82907 6.61457 1.43527
v 0.58977 7.90984 1.33318
v 0.71550 8.22409 1.08257
v 0.76361 7.68927 1.36255
v 0.87698 8.00688 1.06945
v 0.83638 7.43009 1.36089
v 0.91295 7.75245 1.00948
v -0.04131 7.59154 1.61677
v -0.26598 7.62366 1.58831
v -0.05600 7.26631 1.75320
v -0.34495 7.37191 1.66547
v -0.07230 6.97622 1.84690
v -0.41868 7.08516 1.72257
v -0.08589 6.65984 1.89809
v -0.48055 6.73703 1.73510
v -0.18001 6.31741 1.91103
v -0.50473 6.37627 1.71175
v -0.29617 7.66034 1.55165
v -0.54404 7.90669 1.35222
v -0.38533 7.38873 1.63680
v -0.71390 7.68469 1.40489
v -0.48231 7.06896 1.70395
v -0.79639 7.40164 1.41791
v -0.52259 6.72083 1.72917
v -0.82756 7.03552 1.43985
v -0.52314 6.36523 1.71813
v -0.82786 6.61623 1.43602
v -0.61526 7.89498 1.31743
v -0.73700 8.21155 1.06928
v -0.78627 7.66640 1.34171
v -0.89568 7.98801 1.05226
v -0.85215 7.40016 1.33547
v -0.92590 7.72786 0.98860
f 4 3 1 2
f 54 53 55 56
f 6 5 3 4
f 56 55 57 58
f 8 7 5 6
f 58 57 59 60
f 10 9 7 8
f 60 59 61 62
f 14 13 11 12
f 64 63 65 66
f 16 15 13 14
f 66 65 67 68
f 18 17 15 16
f 68 67 69 70
f 20 19 17 18
f 70 69 71 72
f 24 23 21 22
f 74 73 75 76
f 26 25 23 24
f 76 75 77 78
f 27 29 30 28
f 80 82 81 79
f 29 31 32 30
f 82 84 83 81
f 31 33 34 32
f 84 86 85 83
f 33 35 36 34
f 86 88 87 85
f 37 39 40 38
f 90 92 91 89
f 39 41 42 40
f 92 94 93 91
f 41 43 44 42
f 94 96 95 93
f 43 45 46 44
f 96 98 97 95
f 47 49 50 48
f 100 102 101 99
f 49 51 52 50
f 102 104 103 101
f 1 2 54 53
f 1 3 55 53
f 2 4 56 54
f 3 5 57 55
f 4 6 58 56
f 5 7 59 57
f 6 8 60 58
f 7 9 61 59
f 9 10 62 61
f 8 10 62 60
f 11 12 64 63
f 11 13 65 63
f 12 14 66 64
f 13 15 67 65
f 14 16 68 66
f 15 17 69 67
f 16 18 70 68
f 17 19 71 69
f 19 20 72 71
f 18 20 72 70
f 21 22 74 73
f 21 23 75 73
f 22 24 76 74
f 23 25 77 75
f 25 26 78 77
f 24 26 78 76
f 28 30 82 80
f 27 29 81 79
f 27 28 80 79
f 30 32 84 82
f 29 31 83 81
f 32 34 86 84
f 31 33 85 83
f 34 36 88 86
f 35 36 88 87
f 33 35 87 85
f 38 40 92 90
f 37 39 91 89
f 37 38 90 89
f 40 42 94 92
f 39 41 93 91
f 42 44 96 94
f 41 43 95 93
f 44 46 98 96
f 45 46 98 97
f 43 45 97 95
f 48 50 102 100
f 47 49 101 99
f 47 48 100 99
f 50 52 104 102
f 51 52 104 103
f 49 51 103 101
