# Hair shell from hm08 helper-hair (MakeHuman CC0 basemesh helper)
# Official rule: hair is MHCLO clothes in the hair folder, fitted to helper-hair.
# Bangs are a separate clothes piece in community packs (straight_bangs, bob_with_bangs).
# https://static.makehumancommunity.org/makehuman/docs/hairstyles_and_clothes.html
o hair
g hair
v 0.00090 8.23623 1.26570
v 0.00064 8.34379 1.19984
v 0.15410 8.24193 1.28260
v 0.04684 8.35159 1.20074
v 0.00818 8.11267 1.37903
v 0.23338 8.11037 1.35953
v 0.10543 7.14024 1.61559
v 0.43473 7.07214 1.44819
v 0.12793 6.71124 1.61459
v 0.39753 6.67544 1.42169
v 0.16672 8.24061 1.27436
v 0.01912 8.35956 1.15295
v 0.32572 8.25531 1.19856
v 0.02742 8.37656 1.09845
v 0.24689 8.10290 1.34943
v 0.50169 8.10780 1.21093
v 0.44156 7.07410 1.45654
v 0.76096 6.97110 1.26234
v 0.41016 6.67060 1.44444
v 0.65036 6.55520 1.26044
v 0.49077 8.35133 1.00101
v 0.01523 8.44134 0.95985
v 0.51287 8.38203 0.73561
v 0.02483 8.50244 0.78205
v 0.65817 8.15786 1.00720
v 0.68037 8.19006 0.61620
v 0.78342 7.96943 0.98543
v 0.80132 7.95233 0.56533
v 0.81708 7.72561 0.95035
v 0.86278 7.71371 0.53275
v 0.83509 7.34417 0.89503
v 0.92619 7.28077 0.49263
v 0.79478 6.89456 0.88198
v 0.90858 6.76246 0.51708
v 0.75936 6.51660 0.92878
v 0.86896 6.43090 0.56888
v 0.32614 8.25606 1.17967
v 0.01290 8.38608 1.08289
v 0.47144 8.32966 1.01517
v 0.01580 8.43228 0.98909
v 0.51878 8.11425 1.21511
v 0.65678 8.16435 1.02711
v 0.73305 7.72689 1.23508
v 0.83135 7.72959 0.95538
v 0.78509 7.38692 1.24194
v 0.85749 7.34212 0.91534
v 0.77154 6.96135 1.22707
v 0.83444 6.88185 0.90397
v 0.66168 6.54252 1.23106
v 0.78148 6.50062 0.93796
v 0.53396 8.37795 0.71835
v 0.02283 8.51030 0.76962
v 0.55306 8.42895 0.44705
v 0.01893 8.51560 0.63482
v 0.66348 8.17831 0.60323
v 0.69058 8.21931 0.29513
v 0.76730 7.95747 0.55917
v 0.78470 8.02027 0.21897
v 0.84596 7.71804 0.52132
v 0.80526 7.73674 0.15802
v 0.91377 7.28385 0.47518
v 0.84257 7.34535 0.06598
v 0.89326 6.77910 0.50453
v 0.97876 6.89940 0.03483
v 0.86479 6.44203 0.53683
v 1.05489 6.45163 0.08553
v 0.53217 8.41704 0.42777
v 0.01301 8.50892 0.62631
v 0.46407 8.47194 0.24427
v 0.01111 8.50362 0.50171
v 0.66640 8.21562 0.28929
v 0.63890 8.30512 -0.02361
v 0.75189 8.00599 0.21978
v 0.70749 8.05779 -0.16892
v 0.76469 7.71100 0.16423
v 0.72619 7.74880 -0.27707
v 0.82016 7.34186 0.06102
v 0.71586 7.41466 -0.32678
v 0.95005 6.90922 0.02835
v 0.70095 6.97002 -0.36775
v 1.03974 6.50348 -0.01716
v 0.74154 6.56338 -0.43716
v 1.14775 6.06603 -0.16777
v 0.77655 6.08393 -0.47947
v 0.22299 8.47099 0.05234
v 0.00294 8.50079 0.34580
v 0.00519 8.46859 0.04574
v 0.00334 8.48149 0.26680
v 0.25934 8.31977 -0.18703
v 0.00934 8.33387 -0.21573
v 0.29465 8.07295 -0.36652
v 0.00885 8.07565 -0.38632
v 0.29234 7.76461 -0.47826
v 0.00774 7.76571 -0.48236
v 0.30012 7.36876 -0.50515
v 0.01002 7.35036 -0.50845
v 0.29895 6.85402 -0.54067
v 0.01025 6.82552 -0.54387
v 0.29155 6.49628 -0.55259
v 0.00815 6.46988 -0.54329
v 0.30323 6.05800 -0.55519
v 0.00313 6.04350 -0.55439
v 0.45373 8.47315 0.22545
v 0.00650 8.50086 0.48975
v 0.22983 8.47105 0.05885
v 0.00810 8.49766 0.35855
v 0.61751 8.30932 -0.03436
v 0.27081 8.31912 -0.17856
v 0.67949 8.06055 -0.18677
v 0.31139 8.08445 -0.36847
v 0.69869 7.75127 -0.28890
v 0.30979 7.78027 -0.47050
v 0.68935 7.40281 -0.33964
v 0.31645 7.38771 -0.50204
v 0.66399 6.96803 -0.37551
v 0.31139 6.87103 -0.53721
v 0.70296 6.54809 -0.40514
v 0.31076 6.49979 -0.55774
v 0.73739 6.07916 -0.46217
v 0.31879 6.05906 -0.56617
v -0.00283 8.23501 1.26669
v -0.00079 8.34394 1.19977
v -0.15603 8.24071 1.28359
v -0.04699 8.35174 1.20067
v -0.01186 8.11008 1.38107
v -0.23706 8.10778 1.36157
v -0.10768 7.13764 1.61410
v -0.43698 7.06954 1.44670
v -0.13018 6.70864 1.61310
v -0.39978 6.67284 1.42020
v -0.16855 8.24159 1.27230
v -0.02047 8.36161 1.14827
v -0.32755 8.25629 1.19650
v -0.02877 8.37861 1.09377
v -0.24873 8.10185 1.34936
v -0.50353 8.10675 1.21086
v -0.44259 7.07238 1.45567
v -0.76199 6.96938 1.26147
v -0.41119 6.66888 1.44357
v -0.65139 6.55348 1.25957
v -0.49196 8.35023 1.00266
v -0.01690 8.44000 0.96383
v -0.51406 8.38093 0.73726
v -0.02650 8.50110 0.78603
v -0.65915 8.15661 1.00606
v -0.68135 8.18881 0.61506
v -0.78343 7.96940 0.98530
v -0.80133 7.95230 0.56520
v -0.81664 7.72761 0.95190
v -0.86234 7.71571 0.53430
v -0.83472 7.34586 0.89666
v -0.92582 7.28246 0.49426
v -0.79463 6.89516 0.88259
v -0.90843 6.76306 0.51769
v -0.75940 6.51628 0.92860
v -0.86900 6.43058 0.56870
v -0.32774 8.25647 1.17816
v -0.01275 8.38713 1.08109
v -0.47304 8.33007 1.01366
v -0.01565 8.43333 0.98729
v -0.52185 8.11349 1.21360
v -0.65985 8.16359 1.02560
v -0.73393 7.72477 1.23271
v -0.83223 7.72747 0.95301
v -0.78547 7.38569 1.24055
v -0.85787 7.34089 0.91395
v -0.77134 6.96273 1.22835
v -0.83424 6.88323 0.90525
v -0.66124 6.54555 1.23396
v -0.78104 6.50365 0.94086
v -0.53331 8.37877 0.71653
v -0.02095 8.51111 0.76638
v -0.55241 8.42977 0.44523
v -0.01705 8.51641 0.63158
v -0.66361 8.17813 0.60297
v -0.69071 8.21913 0.29487
v -0.76810 7.95537 0.55692
v -0.78550 8.01817 0.21672
v -0.84621 7.71560 0.51872
v -0.80551 7.73430 0.15542
v -0.91356 7.28675 0.47889
v -0.84236 7.34825 0.06969
v -0.89172 6.78494 0.51095
v -0.97722 6.90524 0.04125
v -0.86315 6.44729 0.54129
v -1.05325 6.45689 0.08999
v -0.53003 8.41828 0.42765
v -0.00902 8.50986 0.62154
v -0.46193 8.47318 0.24415
v -0.00712 8.50456 0.49694
v -0.66660 8.21530 0.29064
v -0.63910 8.30480 -0.02226
v -0.75196 8.00552 0.21912
v -0.70756 8.05732 -0.16958
v -0.76459 7.70967 0.16261
v -0.72609 7.74747 -0.27869
v -0.81924 7.33747 0.05573
v -0.71494 7.41027 -0.33207
v -0.94878 6.90573 0.02443
v -0.69968 6.96653 -0.37167
v -1.03820 6.50032 -0.02044
v -0.74000 6.56022 -0.44044
v -1.14494 6.06098 -0.17286
v -0.77374 6.07888 -0.48456
v -0.20973 8.46541 0.05207
v 0.01690 8.48119 0.34773
v 0.00807 8.46301 0.04547
v 0.01650 8.46189 0.26873
v -0.25971 8.31993 -0.18681
v -0.00971 8.33403 -0.21551
v -0.29349 8.07202 -0.36708
v -0.00769 8.07472 -0.38688
v -0.29172 7.76410 -0.47837
v -0.00712 7.76520 -0.48247
v -0.30002 7.36870 -0.50516
v -0.00992 7.35030 -0.50846
v -0.29852 6.85366 -0.54069
v -0.00982 6.82516 -0.54389
v -0.29143 6.49615 -0.55260
v -0.00803 6.46975 -0.54330
v -0.30382 6.05842 -0.55519
v -0.00372 6.04392 -0.55439
v -0.45388 8.47288 0.22450
v -0.00763 8.50082 0.49034
v -0.22998 8.47078 0.05790
v -0.00923 8.49762 0.35914
v -0.61738 8.30926 -0.03449
v -0.27068 8.31906 -0.17869
v -0.67987 8.06114 -0.18625
v -0.31177 8.08504 -0.36795
v -0.69823 7.75067 -0.28925
v -0.30933 7.77967 -0.47085
v -0.68908 7.40248 -0.33979
v -0.31618 7.38738 -0.50219
v -0.66370 6.96759 -0.37567
v -0.31110 6.87059 -0.53737
v -0.70158 6.54644 -0.40577
v -0.30938 6.49814 -0.55837
v -0.73530 6.07686 -0.46301
v -0.31670 6.05676 -0.56701
v -0.01888 8.34357 1.40883
v -0.01965 8.43725 1.35233
v 0.13432 8.34927 1.42573
v 0.02655 8.44505 1.35323
v -0.01092 8.23296 1.51155
v 0.21428 8.23066 1.49205
v 0.18763 7.14418 1.77568
v 0.51693 7.07608 1.60828
v 0.21013 6.71518 1.77468
v 0.47973 6.67938 1.58178
v 0.21186 8.36759 1.39368
v 0.05350 8.50500 1.25327
v 0.37086 8.38229 1.31788
v 0.06180 8.52200 1.19877
v 0.30165 8.20822 1.48474
v 0.55645 8.21312 1.34624
v 0.53211 7.06240 1.61166
v 0.85151 6.95940 1.41746
v 0.50071 6.65890 1.59956
v 0.74091 6.54350 1.41556
v 0.57869 8.50635 1.02626
v 0.04610 8.61719 0.98276
v 0.60079 8.53705 0.76086
v 0.05570 8.67829 0.80496
v 0.80095 8.26548 1.02791
v 0.82436 8.28845 0.63587
v 0.95185 8.03177 0.99735
v 0.97222 7.99803 0.57532
v 0.99602 7.74013 0.96341
v 1.04511 7.70577 0.54333
v 1.01234 7.33855 0.92591
v 1.10782 7.24531 0.52071
v 0.96740 6.88161 0.93133
v 1.08493 6.72328 0.56438
v 0.93003 6.50759 0.98526
v 1.04216 6.40399 0.62407
v 0.37692 8.39247 1.28555
v 0.04526 8.53528 1.17824
v 0.52222 8.46607 1.12105
v 0.04816 8.58148 1.08444
v 0.58701 8.23530 1.32954
v 0.72501 8.28540 1.14154
v 0.90087 7.75384 1.29432
v 0.99917 7.75654 1.01462
v 0.95775 7.39696 1.29178
v 1.03015 7.35216 0.96518
v 0.94468 6.93574 1.26908
v 1.00758 6.85624 0.94598
v 0.83066 6.49856 1.27477
v 0.95046 6.45666 0.98167
v 0.64435 8.51607 0.75208
v 0.06987 8.68042 0.80491
v 0.66691 8.53378 0.47733
v 0.06628 8.67904 0.66941
v 0.82512 8.24539 0.62749
v 0.85935 8.23642 0.31411
v 0.93726 8.00252 0.57855
v 0.96327 8.00682 0.23204
v 1.02461 7.73625 0.51856
v 0.99381 7.68943 0.14712
v 1.09636 7.26284 0.44536
v 1.03689 7.24589 0.02499
v 1.07699 6.74093 0.49970
v 1.17608 6.76961 0.01899
v 1.04530 6.40710 0.56379
v 1.24803 6.33028 0.10430
v 0.63513 8.53130 0.43101
v 0.05659 8.67239 0.66064
v 0.56990 8.55595 0.24358
v 0.05539 8.65055 0.53429
v 0.83158 8.24295 0.27277
v 0.81247 8.27287 -0.04829
v 0.93899 7.96854 0.20237
v 0.90668 7.94034 -0.19676
v 0.95623 7.64268 0.13625
v 0.93199 7.58607 -0.31785
v 1.00970 7.27586 0.02118
v 0.91784 7.26555 -0.37868
v 1.12750 6.84500 -0.05446
v 0.89033 6.82076 -0.46581
v 1.20141 6.43702 -0.13151
v 0.91480 6.40610 -0.57003
v 1.30739 5.98078 -0.28965
v 0.94465 5.93054 -0.61545
v 0.22290 8.54420 -0.02579
v 0.00148 8.63302 0.31943
v 0.00510 8.54060 -0.03262
v 0.00186 8.60086 0.23838
v 0.27305 8.30627 -0.34498
v 0.02311 8.31461 -0.37511
v 0.31519 7.96869 -0.57541
v 0.02946 7.96709 -0.59637
v 0.30131 7.57914 -0.71546
v 0.01671 7.57929 -0.71982
v 0.30244 7.14759 -0.74832
v 0.01235 7.12841 -0.75183
v 0.30055 6.62070 -0.78636
v 0.01185 6.59144 -0.78977
v 0.28878 6.25320 -0.79929
v 0.00539 6.22903 -0.78939
v 0.29601 5.81124 -0.80199
v -0.00409 5.79693 -0.80113
v 0.48369 8.57984 0.17353
v 0.01198 8.65551 0.47652
v 0.26059 8.54853 0.00169
v 0.01369 8.63245 0.34233
v 0.68041 8.32689 -0.16836
v 0.33521 8.30844 -0.31920
v 0.75908 7.98606 -0.37258
v 0.39341 7.97105 -0.56435
v 0.78898 7.60987 -0.49309
v 0.40284 7.59780 -0.68535
v 0.77580 7.22344 -0.55341
v 0.40526 7.17061 -0.72560
v 0.74715 6.77857 -0.59327
v 0.39682 6.64371 -0.76482
v 0.78097 6.36089 -0.62601
v 0.39077 6.27694 -0.78798
v 0.81103 5.88276 -0.68792
v 0.39371 5.83830 -0.79837
v -0.00036 8.33136 1.41871
v 0.01818 8.43881 1.35155
v -0.15356 8.33706 1.43561
v -0.02802 8.44661 1.35245
v -0.02593 8.20710 1.53203
v -0.25113 8.20480 1.51253
v -0.21010 7.11824 1.76085
v -0.53940 7.05014 1.59345
v -0.23260 6.68924 1.75985
v -0.50220 6.65344 1.56695
v -0.23018 8.37736 1.37313
v -0.06701 8.52546 1.20646
v -0.38918 8.39206 1.29733
v -0.07531 8.54246 1.15196
v -0.32007 8.19768 1.48400
v -0.57487 8.20258 1.34550
v -0.54237 7.04517 1.60299
v -0.86177 6.94217 1.40879
v -0.51097 6.64167 1.59089
v -0.75117 6.52627 1.40689
v -0.59060 8.49535 1.04276
v -0.06276 8.60384 1.02261
v -0.61270 8.52605 0.77736
v -0.07236 8.66494 0.84481
v -0.81082 8.25299 1.01646
v -0.83430 8.27586 0.62433
v -0.95204 8.03150 0.99607
v -0.97240 7.99776 0.57402
v -0.99161 7.76009 0.97894
v -1.04062 7.72607 0.55913
v -1.00860 7.35540 0.94222
v -1.10400 7.26254 0.53738
v -0.96592 6.88758 0.93739
v -1.08342 6.72936 0.57056
v -0.93041 6.50442 0.98350
v -1.04255 6.40078 0.62228
v -0.39289 8.39656 1.27052
v -0.04381 8.54580 1.16020
v -0.53819 8.47016 1.10602
v -0.04671 8.59200 1.06640
v -0.61771 8.22773 1.31441
v -0.75571 8.27783 1.12641
v -0.90972 7.73261 1.27060
v -1.00802 7.73531 0.99090
v -0.96155 7.38474 1.27787
v -1.03395 7.33994 0.95127
v -0.94269 6.94947 1.28186
v -1.00559 6.86997 0.95876
v -0.82630 6.52893 1.30380
v -0.94610 6.48703 1.01070
v -0.63782 8.52430 0.73385
v -0.05108 8.68846 0.77248
v -0.66019 8.54224 0.45858
v -0.04738 8.68712 0.63678
v -0.82637 8.24361 0.62491
v -0.86065 8.23457 0.31143
v -0.94538 7.98125 0.55580
v -0.97176 7.98457 0.20825
v -1.02721 7.71143 0.49215
v -0.99655 7.66337 0.11939
v -1.09429 7.29257 0.48334
v -1.03470 7.27734 0.06518
v -1.06127 6.80057 0.56522
v -1.15931 6.83323 0.08888
v -1.02862 6.46062 0.60906
v -1.23030 6.38718 0.15243
v -0.61316 8.54408 0.42979
v -0.01644 8.68193 0.61265
v -0.54738 8.56906 0.24234
v -0.01466 8.66022 0.48561
v -0.83367 8.23950 0.28692
v -0.81466 8.26926 -0.03349
v -0.93964 7.96353 0.19533
v -0.90737 7.93504 -0.20422
v -0.95515 7.62845 0.11893
v -0.93083 7.57088 -0.33634
v -0.99968 7.22836 -0.03613
v -0.90723 7.21521 -0.43941
v -1.11359 6.80700 -0.09717
v -0.87558 6.78044 -0.51113
v -1.18454 6.40241 -0.16743
v -0.89683 6.36924 -0.60829
v -1.27593 5.92426 -0.34671
v -0.91167 5.87130 -0.67526
v -0.07902 8.48365 -0.02867
v 0.20511 8.42899 0.33950
v 0.13892 8.47999 -0.03551
v 0.20698 8.39461 0.25867
v -0.27714 8.30809 -0.34251
v -0.02723 8.31644 -0.37263
v -0.30177 7.95803 -0.58183
v -0.01599 7.95640 -0.60281
v -0.29413 7.57310 -0.71684
v -0.00954 7.57325 -0.72120
v -0.30129 7.14679 -0.74838
v -0.01119 7.12760 -0.75190
v -0.29546 6.61643 -0.78653
v -0.00675 6.58716 -0.78993
v -0.28746 6.25158 -0.79929
v -0.00407 6.22742 -0.78939
v -0.30297 5.81623 -0.80204
v -0.00287 5.80193 -0.80119
v -0.48536 8.57696 0.16342
v -0.02353 8.65507 0.48252
v -0.26230 8.54557 -0.00866
v -0.02544 8.63200 0.34843
v -0.67900 8.32634 -0.16978
v -0.33377 8.30788 -0.32065
v -0.76334 7.99273 -0.36673
v -0.39779 7.97791 -0.55834
v -0.78376 7.60309 -0.49711
v -0.39748 7.59084 -0.68948
v -0.77273 7.21960 -0.55510
v -0.40212 7.16668 -0.72733
v -0.74380 6.77348 -0.59504
v -0.39338 6.63850 -0.76664
v -0.76492 6.34175 -0.63332
v -0.37435 6.25735 -0.79546
v -0.78664 5.85579 -0.69771
v -0.36893 5.81090 -0.80832
f 4 3 1 2
f 242 241 243 244
f 6 5 1 3
f 243 241 245 246
f 10 9 7 8
f 248 247 249 250
f 14 13 11 12
f 252 251 253 254
f 16 15 11 13
f 253 251 255 256
f 20 19 17 18
f 258 257 259 260
f 24 23 21 22
f 262 261 263 264
f 26 25 21 23
f 263 261 265 266
f 28 27 25 26
f 266 265 267 268
f 30 29 27 28
f 268 267 269 270
f 32 31 29 30
f 270 269 271 272
f 34 33 31 32
f 272 271 273 274
f 36 35 33 34
f 274 273 275 276
f 40 39 37 38
f 278 277 279 280
f 42 41 37 39
f 279 277 281 282
f 46 45 43 44
f 284 283 285 286
f 48 47 45 46
f 286 285 287 288
f 50 49 47 48
f 288 287 289 290
f 54 53 51 52
f 292 291 293 294
f 56 55 51 53
f 293 291 295 296
f 58 57 55 56
f 296 295 297 298
f 60 59 57 58
f 298 297 299 300
f 62 61 59 60
f 300 299 301 302
f 64 63 61 62
f 302 301 303 304
f 66 65 63 64
f 304 303 305 306
f 70 69 67 68
f 308 307 309 310
f 72 71 67 69
f 309 307 311 312
f 74 73 71 72
f 312 311 313 314
f 76 75 73 74
f 314 313 315 316
f 78 77 75 76
f 316 315 317 318
f 80 79 77 78
f 318 317 319 320
f 82 81 79 80
f 320 319 321 322
f 84 83 81 82
f 322 321 323 324
f 88 87 85 86
f 326 325 327 328
f 90 89 85 87
f 327 325 329 330
f 92 91 89 90
f 330 329 331 332
f 94 93 91 92
f 332 331 333 334
f 96 95 93 94
f 334 333 335 336
f 98 97 95 96
f 336 335 337 338
f 100 99 97 98
f 338 337 339 340
f 102 101 99 100
f 340 339 341 342
f 106 105 103 104
f 344 343 345 346
f 108 107 103 105
f 345 343 347 348
f 110 109 107 108
f 348 347 349 350
f 112 111 109 110
f 350 349 351 352
f 114 113 111 112
f 352 351 353 354
f 116 115 113 114
f 354 353 355 356
f 118 117 115 116
f 356 355 357 358
f 120 119 117 118
f 358 357 359 360
f 121 123 124 122
f 362 364 363 361
f 121 125 126 123
f 363 366 365 361
f 127 129 130 128
f 368 370 369 367
f 131 133 134 132
f 372 374 373 371
f 131 135 136 133
f 373 376 375 371
f 137 139 140 138
f 378 380 379 377
f 141 143 144 142
f 382 384 383 381
f 141 145 146 143
f 383 386 385 381
f 145 147 148 146
f 386 388 387 385
f 147 149 150 148
f 388 390 389 387
f 149 151 152 150
f 390 392 391 389
f 151 153 154 152
f 392 394 393 391
f 153 155 156 154
f 394 396 395 393
f 157 159 160 158
f 398 400 399 397
f 157 161 162 159
f 399 402 401 397
f 163 165 166 164
f 404 406 405 403
f 165 167 168 166
f 406 408 407 405
f 167 169 170 168
f 408 410 409 407
f 171 173 174 172
f 412 414 413 411
f 171 175 176 173
f 413 416 415 411
f 175 177 178 176
f 416 418 417 415
f 177 179 180 178
f 418 420 419 417
f 179 181 182 180
f 420 422 421 419
f 181 183 184 182
f 422 424 423 421
f 183 185 186 184
f 424 426 425 423
f 187 189 190 188
f 428 430 429 427
f 187 191 192 189
f 429 432 431 427
f 191 193 194 192
f 432 434 433 431
f 193 195 196 194
f 434 436 435 433
f 195 197 198 196
f 436 438 437 435
f 197 199 200 198
f 438 440 439 437
f 199 201 202 200
f 440 442 441 439
f 201 203 204 202
f 442 444 443 441
f 205 207 208 206
f 446 448 447 445
f 205 209 210 207
f 447 450 449 445
f 209 211 212 210
f 450 452 451 449
f 211 213 214 212
f 452 454 453 451
f 213 215 216 214
f 454 456 455 453
f 215 217 218 216
f 456 458 457 455
f 217 219 220 218
f 458 460 459 457
f 219 221 222 220
f 460 462 461 459
f 223 225 226 224
f 464 466 465 463
f 223 227 228 225
f 465 468 467 463
f 227 229 230 228
f 468 470 469 467
f 229 231 232 230
f 470 472 471 469
f 231 233 234 232
f 472 474 473 471
f 233 235 236 234
f 474 476 475 473
f 235 237 238 236
f 476 478 477 475
f 237 239 240 238
f 478 480 479 477
f 1 2 242 241
f 3 4 244 243
f 2 4 244 242
f 1 5 245 241
f 5 6 246 245
f 3 6 246 243
f 7 8 248 247
f 7 9 249 247
f 9 10 250 249
f 8 10 250 248
f 11 12 252 251
f 13 14 254 253
f 12 14 254 252
f 11 15 255 251
f 15 16 256 255
f 13 16 256 253
f 17 18 258 257
f 17 19 259 257
f 19 20 260 259
f 18 20 260 258
f 21 22 262 261
f 23 24 264 263
f 22 24 264 262
f 21 25 265 261
f 23 26 266 263
f 25 27 267 265
f 26 28 268 266
f 27 29 269 267
f 28 30 270 268
f 29 31 271 269
f 30 32 272 270
f 31 33 273 271
f 32 34 274 272
f 33 35 275 273
f 35 36 276 275
f 34 36 276 274
f 37 38 278 277
f 39 40 280 279
f 38 40 280 278
f 37 41 281 277
f 41 42 282 281
f 39 42 282 279
f 43 44 284 283
f 43 45 285 283
f 44 46 286 284
f 45 47 287 285
f 46 48 288 286
f 47 49 289 287
f 49 50 290 289
f 48 50 290 288
f 51 52 292 291
f 53 54 294 293
f 52 54 294 292
f 51 55 295 291
f 53 56 296 293
f 55 57 297 295
f 56 58 298 296
f 57 59 299 297
f 58 60 300 298
f 59 61 301 299
f 60 62 302 300
f 61 63 303 301
f 62 64 304 302
f 63 65 305 303
f 65 66 306 305
f 64 66 306 304
f 67 68 308 307
f 69 70 310 309
f 68 70 310 308
f 67 71 311 307
f 69 72 312 309
f 71 73 313 311
f 72 74 314 312
f 73 75 315 313
f 74 76 316 314
f 75 77 317 315
f 76 78 318 316
f 77 79 319 317
f 78 80 320 318
f 79 81 321 319
f 80 82 322 320
f 81 83 323 321
f 83 84 324 323
f 82 84 324 322
f 85 86 326 325
f 87 88 328 327
f 86 88 328 326
f 85 89 329 325
f 87 90 330 327
f 89 91 331 329
f 90 92 332 330
f 91 93 333 331
f 92 94 334 332
f 93 95 335 333
f 94 96 336 334
f 95 97 337 335
f 96 98 338 336
f 97 99 339 337
f 98 100 340 338
f 99 101 341 339
f 101 102 342 341
f 100 102 342 340
f 103 104 344 343
f 105 106 346 345
f 104 106 346 344
f 103 107 347 343
f 105 108 348 345
f 107 109 349 347
f 108 110 350 348
f 109 111 351 349
f 110 112 352 350
f 111 113 353 351
f 112 114 354 352
f 113 115 355 353
f 114 116 356 354
f 115 117 357 355
f 116 118 358 356
f 117 119 359 357
f 119 120 360 359
f 118 120 360 358
f 122 124 364 362
f 123 124 364 363
f 121 122 362 361
f 123 126 366 363
f 125 126 366 365
f 121 125 365 361
f 128 130 370 368
f 129 130 370 369
f 127 129 369 367
f 127 128 368 367
f 132 134 374 372
f 133 134 374 373
f 131 132 372 371
f 133 136 376 373
f 135 136 376 375
f 131 135 375 371
f 138 140 380 378
f 139 140 380 379
f 137 139 379 377
f 137 138 378 377
f 142 144 384 382
f 143 144 384 383
f 141 142 382 381
f 143 146 386 383
f 141 145 385 381
f 146 148 388 386
f 145 147 387 385
f 148 150 390 388
f 147 149 389 387
f 150 152 392 390
f 149 151 391 389
f 152 154 394 392
f 151 153 393 391
f 154 156 396 394
f 155 156 396 395
f 153 155 395 393
f 158 160 400 398
f 159 160 400 399
f 157 158 398 397
f 159 162 402 399
f 161 162 402 401
f 157 161 401 397
f 164 166 406 404
f 163 165 405 403
f 163 164 404 403
f 166 168 408 406
f 165 167 407 405
f 168 170 410 408
f 169 170 410 409
f 167 169 409 407
f 172 174 414 412
f 173 174 414 413
f 171 172 412 411
f 173 176 416 413
f 171 175 415 411
f 176 178 418 416
f 175 177 417 415
f 178 180 420 418
f 177 179 419 417
f 180 182 422 420
f 179 181 421 419
f 182 184 424 422
f 181 183 423 421
f 184 186 426 424
f 185 186 426 425
f 183 185 425 423
f 188 190 430 428
f 189 190 430 429
f 187 188 428 427
f 189 192 432 429
f 187 191 431 427
f 192 194 434 432
f 191 193 433 431
f 194 196 436 434
f 193 195 435 433
f 196 198 438 436
f 195 197 437 435
f 198 200 440 438
f 197 199 439 437
f 200 202 442 440
f 199 201 441 439
f 202 204 444 442
f 203 204 444 443
f 201 203 443 441
f 206 208 448 446
f 207 208 448 447
f 205 206 446 445
f 207 210 450 447
f 205 209 449 445
f 210 212 452 450
f 209 211 451 449
f 212 214 454 452
f 211 213 453 451
f 214 216 456 454
f 213 215 455 453
f 216 218 458 456
f 215 217 457 455
f 218 220 460 458
f 217 219 459 457
f 220 222 462 460
f 221 222 462 461
f 219 221 461 459
f 224 226 466 464
f 225 226 466 465
f 223 224 464 463
f 225 228 468 465
f 223 227 467 463
f 228 230 470 468
f 227 229 469 467
f 230 232 472 470
f 229 231 471 469
f 232 234 474 472
f 231 233 473 471
f 234 236 476 474
f 233 235 475 473
f 236 238 478 476
f 235 237 477 475
f 238 240 480 478
f 239 240 480 479
f 237 239 479 477
