# MakeHuman hm08 scalp cap — body verts grown along normals
# Not a helper. Sits under official hair cards so clay skull is not visible.
o scalp
g scalp
v -0.570589 7.882942 1.201757
v -0.657264 7.778262 1.093548
v -0.687706 7.495363 1.018118
v -0.661568 7.584162 1.107465
v -0.718592 7.544281 0.921485
v -0.704690 7.664905 0.993573
v -0.725140 7.705596 0.933765
v -0.621562 7.517567 1.196961
v -0.780049 7.498499 0.415440
v -0.572519 8.136049 0.045454
v -0.467773 8.240879 -0.015392
v -0.770199 7.737103 0.285968
v -0.726789 7.864968 0.212120
v -0.673646 8.123958 0.370580
v -0.459115 8.389602 0.306237
v -0.000660 8.516579 0.306420
v -0.575106 8.270685 0.336455
v -0.000332 8.531151 0.699533
v -0.000081 8.447307 0.986924
v -0.405172 8.361338 0.938033
v -0.633280 7.487354 -0.065753
v -0.560972 7.529962 -0.176126
v -0.475318 7.564169 -0.286443
v -0.373559 7.592028 -0.364606
v -0.000113 7.638869 -0.430874
v -0.768530 7.445836 0.338148
v -0.746684 7.643710 0.169139
v -0.698442 7.749367 0.069925
v -0.633494 7.854100 -0.038111
v -0.543020 7.956206 -0.161172
v -0.426441 8.028692 -0.229812
v -0.000026 8.102520 -0.293526
v -0.433874 8.424990 0.668162
v -0.562314 8.310316 0.648961
v -0.540806 8.270472 0.891115
v -0.682606 7.837173 1.026616
v -0.667073 8.162229 0.623347
v -0.745147 7.990691 0.595313
v -0.591978 7.956111 1.129278
v -0.744784 7.961707 0.402403
v -0.783666 7.805791 0.439934
v -0.782792 7.536633 0.506198
v -0.467471 8.040196 1.220754
v -0.729678 7.973706 0.752617
v -0.652293 8.138009 0.824750
v -0.780153 7.821180 0.580061
v -0.769986 7.812677 0.698475
v -0.770602 7.538658 0.262174
v -0.792085 7.655979 0.480426
v -0.630544 8.078231 0.971370
v -0.714004 7.934718 0.874095
v -0.761410 7.788421 0.795684
v -0.512157 8.190738 1.059987
v 0.000011 8.322332 1.189949
v -0.372727 8.261726 1.123355
v -0.100464 8.307300 1.184678
v -0.155005 8.090728 -0.286397
v -0.129322 7.631037 -0.426961
v -0.158404 8.516421 0.695999
v -0.181787 8.495798 0.298188
v -0.125639 8.433705 0.985468
v -0.250102 8.413676 0.976434
v -0.252686 7.614622 -0.409237
v -0.290841 8.070960 -0.272079
v -0.315797 8.460820 0.297149
v -0.284006 8.491727 0.692061
v -0.216982 8.292519 1.169595
v -0.675436 7.472171 1.064747
v -0.642556 7.549221 1.154194
v -0.541744 7.810679 1.259115
v -0.632488 7.723534 1.152780
v -0.701971 7.517729 0.971262
v -0.681214 7.621413 1.056503
v -0.674247 8.013055 0.130618
v -0.000407 8.353933 -0.065753
v -0.786427 7.604732 0.353884
v -0.176238 8.329831 -0.067598
v -0.317358 8.298239 -0.051632
v -0.398514 7.795013 -0.333332
v -0.508864 7.748297 -0.253075
v -0.717624 7.542145 0.091779
v -0.595564 7.684738 -0.127749
v -0.665400 7.617019 -0.017503
v -0.000004 7.861501 -0.398781
v -0.748706 7.467572 0.211767
v -0.142836 7.836764 -0.395949
v -0.272481 7.823278 -0.380837
v -0.733829 7.574471 0.864150
v -0.788930 7.671888 0.575895
v -0.779677 7.662898 0.665175
v -0.766943 7.641063 0.742173
v -0.779818 7.544984 0.577055
v -0.773899 7.537643 0.645110
v -0.760702 7.513422 0.712313
v -0.607818 8.015654 1.060120
v -0.484085 8.111720 1.153340
v -0.697563 7.888927 0.958603
v -0.743416 7.750243 0.872051
v 0.001226 8.239810 1.282827
v -0.348382 8.176922 1.220667
v -0.085831 8.234353 1.275922
v -0.195862 8.212912 1.262323
v -0.752164 7.608582 0.806693
v -0.748991 7.480062 0.763332
v 0.571293 7.881695 1.201407
v 0.657009 7.778326 1.094023
v 0.687641 7.492629 1.018397
v 0.661709 7.583966 1.107127
v 0.718864 7.544117 0.920445
v 0.704784 7.664980 0.993312
v 0.725420 7.705776 0.932887
v 0.621732 7.518317 1.196563
v 0.779998 7.498228 0.414662
v 0.572310 8.136593 0.045725
v 0.467099 8.241259 -0.015683
v 0.770195 7.736341 0.285488
v 0.726301 7.866783 0.211821
v 0.673570 8.124398 0.371583
v 0.459639 8.389227 0.306275
v 0.575821 8.269992 0.337313
v 0.405837 8.360852 0.938185
v 0.633745 7.487791 -0.065022
v 0.560588 7.529718 -0.176644
v 0.474546 7.563576 -0.287190
v 0.373584 7.591931 -0.364594
v 0.768399 7.445918 0.336931
v 0.746701 7.643616 0.169176
v 0.697879 7.749503 0.068618
v 0.633822 7.854037 -0.037502
v 0.543320 7.956471 -0.160628
v 0.426014 8.028761 -0.230088
v 0.435533 8.423991 0.667225
v 0.564066 8.308395 0.648249
v 0.541945 8.269196 0.891150
v 0.682621 7.837314 1.026525
v 0.667554 8.161412 0.622974
v 0.745125 7.990726 0.595581
v 0.592479 7.955493 1.128915
v 0.744460 7.962992 0.403038
v 0.783780 7.804634 0.439209
v 0.782766 7.536193 0.505842
v 0.468190 8.039157 1.220740
v 0.729603 7.973241 0.753909
v 0.652829 8.136602 0.825663
v 0.780278 7.820198 0.580518
v 0.769876 7.812660 0.699348
v 0.770454 7.538696 0.261438
v 0.792083 7.654579 0.479820
v 0.631385 8.075395 0.972557
v 0.714062 7.933391 0.875185
v 0.761068 7.789117 0.797058
v 0.512466 8.189419 1.061089
v 0.371236 8.261672 1.124675
v 0.100137 8.306845 1.185404
v 0.154573 8.090697 -0.286484
v 0.129655 7.631168 -0.426922
v 0.157402 8.516545 0.696318
v 0.180400 8.495884 0.297597
v 0.125116 8.433751 0.985553
v 0.250414 8.413503 0.976585
v 0.253324 7.614808 -0.409060
v 0.290429 8.070879 -0.272282
v 0.314814 8.460958 0.296245
v 0.283401 8.492023 0.691166
v 0.216341 8.291985 1.170610
v 0.674737 7.469290 1.067139
v 0.642555 7.549862 1.154171
v 0.632205 7.722081 1.153639
v 0.702249 7.516979 0.970181
v 0.681340 7.620780 1.056178
v 0.674230 8.014092 0.131730
v 0.786336 7.603944 0.353079
v 0.175182 8.330204 -0.067345
v 0.317106 8.298314 -0.051674
v 0.399503 7.795281 -0.332682
v 0.509115 7.748308 -0.252798
v 0.717796 7.542029 0.092207
v 0.594983 7.684409 -0.128684
v 0.665246 7.616985 -0.017789
v 0.748536 7.467225 0.211316
v 0.143178 7.836819 -0.395896
v 0.272925 7.823477 -0.380655
v 0.733846 7.574567 0.864110
v 0.788914 7.671290 0.576215
v 0.779584 7.663265 0.666014
v 0.766681 7.641246 0.743788
v 0.779807 7.545111 0.577366
v 0.773922 7.537823 0.645033
v 0.760607 7.513491 0.712919
v 0.608386 8.012727 1.061327
v 0.484822 8.109912 1.153942
v 0.697876 7.887713 0.958527
v 0.743741 7.750352 0.870869
v 0.348172 8.176917 1.220814
v 0.086198 8.234022 1.276160
v 0.195935 8.212898 1.262308
v 0.751993 7.608669 0.807495
v 0.748528 7.480243 0.765939
f 72 3 4 73
f 71 2 6 73
f 17 34 33 15
f 2 71 70 1
f 31 11 78 64
f 64 78 77 57
f 29 74 10 30
f 48 76 12 27
f 30 10 11 31
f 27 12 13 28
f 38 40 41 46
f 14 37 34 17
f 40 38 37 14
f 26 9 76 48
f 57 77 75 32
f 28 13 74 29
f 22 82 80 23
f 80 30 31 79
f 85 48 27 81
f 82 29 30 80
f 83 28 29 82
f 86 57 32 84
f 81 27 28 83
f 61 19 18 59
f 35 20 33 34
f 36 7 6 2
f 36 2 1 39
f 66 65 15 33
f 97 36 39 95
f 97 98 7 36
f 47 44 38 46
f 44 45 37 38
f 95 39 43 96
f 44 51 50 45
f 44 47 52 51
f 45 50 53 35
f 18 16 60 59
f 62 20 55 67
f 20 35 53 55
f 87 64 57 86
f 45 35 34 37
f 56 54 19 61
f 62 61 59 66
f 96 100 55 53
f 59 60 65 66
f 61 62 67 56
f 79 31 64 87
f 20 62 66 33
f 101 56 67 102
f 102 67 55 100
f 3 68 69 4
f 5 72 73 6
f 23 80 79 24
f 21 83 82 22
f 58 86 84 25
f 63 87 86 58
f 24 79 87 63
f 98 103 88 7
f 91 52 47 90
f 46 89 90 47
f 89 92 93 90
f 94 91 90 93
f 46 41 49 89
f 49 42 92 89
f 5 6 7 88
f 51 97 95 50
f 51 52 98 97
f 50 95 96 53
f 56 101 99 54
f 52 91 103 98
f 91 94 104 103
f 76 9 42 49
f 12 76 49 41
f 13 12 41 40
f 74 13 40 14
f 10 74 14 17
f 11 10 17 15
f 78 11 15 65
f 77 78 65 60
f 75 77 60 16
f 169 170 108 107
f 168 170 110 106
f 120 119 132 133
f 131 162 174 115
f 162 155 173 174
f 129 130 114 171
f 147 127 116 172
f 130 131 115 114
f 127 128 117 116
f 137 145 140 139
f 118 120 133 136
f 139 118 136 137
f 126 147 172 113
f 155 32 75 173
f 128 129 171 117
f 123 124 176 178
f 176 175 131 130
f 180 177 127 147
f 178 176 130 129
f 179 178 129 128
f 181 84 32 155
f 177 179 128 127
f 159 157 18 19
f 134 133 132 121
f 135 106 110 111
f 135 138 105 106
f 164 132 119 163
f 192 190 138 135
f 192 135 111 193
f 146 145 137 143
f 143 137 136 144
f 190 191 142 138
f 143 144 149 150
f 143 150 151 146
f 144 134 152 149
f 18 157 158 16
f 160 165 153 121
f 121 153 152 134
f 182 181 155 162
f 144 136 133 134
f 154 159 19 54
f 160 164 157 159
f 191 152 153 194
f 157 164 163 158
f 159 154 165 160
f 175 182 162 131
f 121 132 164 160
f 195 196 165 154
f 196 194 153 165
f 107 108 167 166
f 109 110 170 169
f 124 125 175 176
f 122 123 178 179
f 156 25 84 181
f 161 156 181 182
f 125 161 182 175
f 193 111 183 197
f 186 185 146 151
f 145 146 185 184
f 184 185 188 187
f 189 188 185 186
f 145 184 148 140
f 148 184 187 141
f 109 183 111 110
f 150 149 190 192
f 150 192 193 151
f 149 152 191 190
f 154 54 99 195
f 151 193 197 186
f 186 197 198 189
f 172 148 141 113
f 116 140 148 172
f 117 139 140 116
f 171 118 139 117
f 114 120 118 171
f 115 119 120 114
f 174 163 119 115
f 173 158 163 174
f 75 16 158 173
