# Tight hair from hm08 body scalp (CC0). Not helper-hair.
# MakeHuman clothes type Hair: mesh + MHCLO proxy. Helpers are not rendered.
# https://static.makehumancommunity.org/assets/creatingassets/makeclothes/introduction.html
o hair
g hair
v -0.17306 8.11485 1.31215
v -0.58675 7.66967 1.19070
v -0.54910 7.87382 1.18261
v -0.63094 7.77430 1.07968
v -0.65878 7.49410 1.01027
v -0.63405 7.58399 1.09545
v -0.68981 7.54603 0.91320
v -0.67652 7.66491 0.98324
v -0.69670 7.70524 0.92424
v -0.63156 7.44606 1.10263
v -0.59556 7.51656 1.18173
v -0.75016 7.50095 0.41610
v -0.54873 8.12155 0.05658
v -0.45028 8.22095 -0.00136
v -0.74105 7.73308 0.29180
v -0.69830 7.85926 0.21958
v -0.69451 7.41981 0.86024
v -0.74416 7.44123 0.52521
v -0.64735 8.11023 0.37505
v -0.44204 8.36558 0.31186
v -0.00014 8.48744 0.31352
v -0.55211 8.25206 0.34137
v -0.00008 8.50122 0.69734
v -0.00018 8.41950 0.97564
v -0.39055 8.33728 0.92766
v -0.66003 7.44218 0.06810
v -0.60769 7.48990 -0.05030
v -0.53663 7.53143 -0.15864
v -0.45362 7.56465 -0.26571
v -0.35922 7.59141 -0.33826
v -0.00002 7.63643 -0.40097
v -0.73891 7.44945 0.34133
v -0.71822 7.64196 0.17845
v -0.67073 7.74596 0.08090
v -0.60745 7.84864 -0.02425
v -0.52001 7.94741 -0.14405
v -0.41024 8.01522 -0.20845
v 0.00004 8.08550 -0.26882
v -0.41810 8.39961 0.66550
v -0.54059 8.28971 0.64711
v -0.51989 8.25060 0.88287
v -0.65571 7.83209 1.01433
v -0.64126 8.14698 0.62218
v -0.71679 7.98092 0.59443
v -0.56903 7.94596 1.11279
v -0.71623 7.95326 0.40607
v -0.75416 7.80079 0.44210
v -0.75287 7.53870 0.50553
v -0.44889 8.02722 1.20108
v -0.31726 8.08328 1.27201
v -0.70146 7.96448 0.74831
v -0.62675 8.12342 0.81885
v -0.75059 7.81618 0.57893
v -0.74047 7.80855 0.69503
v -0.74119 7.54040 0.26784
v -0.76210 7.65502 0.48087
v -0.60579 8.06497 0.96082
v -0.68620 7.92633 0.86656
v -0.73200 7.78568 0.79043
v -0.49187 8.17340 1.04628
v -0.00003 8.29754 1.17304
v -0.06660 8.12995 1.32242
v 0.00009 8.13174 1.32839
v -0.35828 8.24070 1.10756
v -0.09562 8.28288 1.16793
v -0.15106 8.07395 -0.26184
v -0.12686 7.62886 -0.39714
v -0.15353 8.48688 0.69387
v -0.17656 8.46706 0.30502
v -0.12113 8.40638 0.97393
v -0.24137 8.38739 0.96489
v -0.24536 7.61311 -0.38018
v -0.28192 8.05500 -0.24829
v -0.30534 8.43344 0.30352
v -0.27395 8.46360 0.68920
v -0.20837 8.26915 1.15286
v -0.64661 7.47018 1.05665
v -0.61581 7.54938 1.14035
v -0.60685 7.71851 1.13782
v -0.67327 7.51871 0.96259
v -0.65328 7.62096 1.04557
v -0.64766 8.00301 0.14021
v -0.00008 8.32899 -0.04908
v -0.75656 7.60454 0.35673
v -0.17133 8.30545 -0.05081
v -0.30754 8.27494 -0.03548
v -0.38392 7.78899 -0.30782
v -0.48687 7.74522 -0.23290
v -0.68995 7.54351 0.10328
v -0.57010 7.68330 -0.11196
v -0.63892 7.61646 -0.00341
v 0.00002 7.85261 -0.37013
v -0.71985 7.47132 0.21920
v -0.13989 7.82803 -0.36740
v -0.26469 7.81539 -0.35296
v -0.43442 7.41248 -0.27218
v -0.00000 7.44203 -0.40160
v -0.34075 7.42495 -0.33669
v -0.11506 7.43539 -0.39816
v -0.23020 7.42954 -0.38120
v -0.70479 7.57644 0.85687
v -0.75898 7.67123 0.57424
v -0.74984 7.66326 0.66204
v -0.73727 7.64229 0.73791
v -0.70818 7.44202 0.80896
v -0.74995 7.54717 0.57522
v -0.74422 7.53983 0.64126
v -0.73114 7.51555 0.70765
v -0.74215 7.44734 0.57759
v -0.73805 7.43764 0.62757
v -0.58390 8.00396 1.04630
v -0.46477 8.09706 1.13568
v -0.67039 7.88199 0.94794
v -0.71469 7.74884 0.86350
v 0.00016 8.21881 1.26143
v -0.33465 8.15942 1.20054
v -0.08105 8.21358 1.25481
v -0.18745 8.19319 1.24134
v -0.72287 7.61052 0.80050
v -0.71933 7.48177 0.75913
v 0.17279 8.11517 1.31198
v 0.58675 7.66972 1.19069
v 0.54907 7.87420 1.18250
v 0.63090 7.77454 1.07971
v 0.65864 7.49316 1.01065
v 0.63396 7.58338 1.09570
v 0.68986 7.54597 0.91302
v 0.67655 7.66495 0.98318
v 0.69678 7.70526 0.92397
v 0.63114 7.44561 1.10368
v 0.59514 7.51611 1.18278
v 0.75014 7.50087 0.41596
v 0.54865 8.12168 0.05658
v 0.44998 8.22105 -0.00158
v 0.74104 7.73289 0.29165
v 0.69819 7.85961 0.21947
v 0.69452 7.41981 0.86017
v 0.74416 7.44121 0.52517
v 0.64731 8.11038 0.37529
v 0.44206 8.36558 0.31191
v 0.55227 8.25191 0.34157
v 0.39064 8.33721 0.92769
v 0.66033 7.44245 0.06865
v 0.60781 7.49000 -0.05010
v 0.53640 7.53127 -0.15896
v 0.45341 7.56450 -0.26591
v 0.35922 7.59140 -0.33826
v 0.73890 7.44947 0.34114
v 0.71821 7.64199 0.17845
v 0.67060 7.74597 0.08059
v 0.60747 7.84860 -0.02423
v 0.52007 7.94747 -0.14395
v 0.41011 8.01529 -0.20851
v 0.41848 8.39938 0.66530
v 0.54099 8.28926 0.64703
v 0.52016 8.25033 0.88280
v 0.65573 7.83212 1.01429
v 0.64137 8.14677 0.62227
v 0.71684 7.98077 0.59460
v 0.56907 7.94572 1.11287
v 0.71621 7.95342 0.40632
v 0.75420 7.80051 0.44214
v 0.75287 7.53862 0.50547
v 0.44900 8.02686 1.20123
v 0.31724 8.08332 1.27199
v 0.70145 7.96437 0.74852
v 0.62689 8.12311 0.81894
v 0.75061 7.81603 0.57894
v 0.74043 7.80858 0.69528
v 0.74119 7.54045 0.26780
v 0.76210 7.65483 0.48080
v 0.60597 8.06425 0.96117
v 0.68622 7.92599 0.86681
v 0.73194 7.78576 0.79071
v 0.49189 8.17307 1.04660
v 0.06644 8.13016 1.32228
v 0.35798 8.24066 1.10786
v 0.09571 8.28269 1.16815
v 0.15094 8.07393 -0.26187
v 0.12693 7.62889 -0.39713
v 0.15334 8.48693 0.69377
v 0.17620 8.46711 0.30498
v 0.12101 8.40637 0.97399
v 0.24140 8.38736 0.96493
v 0.24551 7.61320 -0.38014
v 0.28184 8.05500 -0.24832
v 0.30506 8.43350 0.30338
v 0.27387 8.46366 0.68895
v 0.20832 8.26899 1.15309
v 0.64633 7.46931 1.05742
v 0.61553 7.54851 1.14112
v 0.60687 7.71875 1.13775
v 0.67319 7.51829 0.96278
v 0.65326 7.62087 1.04563
v 0.64763 8.00329 0.14043
v 0.75654 7.60437 0.35653
v 0.17105 8.30549 -0.05084
v 0.30745 8.27493 -0.03555
v 0.38412 7.78904 -0.30769
v 0.48691 7.74520 -0.23286
v 0.69007 7.54362 0.10357
v 0.56993 7.68320 -0.11222
v 0.63891 7.61648 -0.00344
v 0.71997 7.47141 0.21957
v 0.13998 7.82807 -0.36738
v 0.26479 7.81542 -0.35292
v 0.43400 7.41220 -0.27246
v 0.34069 7.42492 -0.33672
v 0.11508 7.43540 -0.39816
v 0.23041 7.42965 -0.38115
v 0.70479 7.57647 0.85690
v 0.75898 7.67122 0.57424
v 0.74981 7.66333 0.66232
v 0.73722 7.64237 0.73823
v 0.70807 7.44205 0.80946
v 0.74995 7.54719 0.57527
v 0.74421 7.53991 0.64145
v 0.73111 7.51561 0.70785
v 0.74215 7.44735 0.57763
v 0.73804 7.43769 0.62768
v 0.58403 8.00325 1.04660
v 0.46487 8.09666 1.13588
v 0.67048 7.88171 0.94787
v 0.71477 7.74887 0.86323
v 0.33463 8.15940 1.20057
v 0.08120 8.21348 1.25487
v 0.18745 8.19319 1.24134
v 0.72282 7.61055 0.80075
v 0.71921 7.48182 0.75974
v -0.18547 8.14163 1.34612
v -0.62790 7.67224 1.20872
v -0.58733 7.88245 1.20471
v -0.67162 7.77832 1.09850
v -0.70186 7.49547 1.02317
v -0.67657 7.58576 1.11009
v -0.73306 7.54347 0.92537
v -0.71893 7.66450 0.99829
v -0.73942 7.70542 0.93836
v -0.67412 7.44723 1.11719
v -0.63812 7.51773 1.19629
v -0.79496 7.49714 0.41430
v -0.58441 8.14293 0.03942
v -0.47719 8.24996 -0.02278
v -0.78491 7.73839 0.28328
v -0.74103 7.86764 0.20823
v -0.73818 7.41717 0.87075
v -0.78897 7.43779 0.52750
v -0.68716 8.13017 0.36854
v -0.46832 8.40105 0.30314
v -0.00078 8.53124 0.30325
v -0.58680 8.27976 0.33401
v -0.00046 8.54588 0.70289
v -0.00100 8.46046 0.99427
v -0.41281 8.37274 0.94415
v -0.69929 7.43806 0.04650
v -0.64632 7.48765 -0.07327
v -0.57409 7.53109 -0.18356
v -0.48432 7.56444 -0.29861
v -0.38093 7.59188 -0.37767
v -0.00009 7.63972 -0.44585
v -0.78353 7.44470 0.33789
v -0.76104 7.64358 0.16471
v -0.71226 7.75072 0.06424
v -0.64684 7.85602 -0.04472
v -0.55427 7.96003 -0.17036
v -0.43471 8.03420 -0.24110
v 0.00023 8.10977 -0.30671
v -0.44194 8.43745 0.67047
v -0.57337 8.32037 0.65028
v -0.55137 8.27986 0.89622
v -0.69626 7.83926 1.03248
v -0.68025 8.16938 0.62387
v -0.75952 7.99497 0.59591
v -0.60562 7.96017 1.13480
v -0.75912 7.96569 0.40053
v -0.79855 7.80750 0.43896
v -0.79774 7.53556 0.50699
v -0.47762 8.04847 1.22842
v -0.33779 8.10796 1.30355
v -0.74402 7.97742 0.75508
v -0.66521 8.14468 0.82852
v -0.79510 7.82238 0.58130
v -0.78488 7.81372 0.70010
v -0.78526 7.53815 0.25902
v -0.80710 7.65510 0.48075
v -0.64307 8.08419 0.97712
v -0.72806 7.93815 0.87810
v -0.77611 7.78917 0.79865
v -0.52231 8.19859 1.06781
v -0.00016 8.33373 1.19979
v -0.07334 8.15719 1.35759
v 0.00047 8.15938 1.36390
v -0.37977 8.27131 1.13259
v -0.10245 8.31879 1.19417
v -0.15717 8.09804 -0.29935
v -0.13071 7.63181 -0.44188
v -0.16087 8.53091 0.69959
v -0.18493 8.51007 0.29478
v -0.12801 8.44678 0.99252
v -0.25385 8.42651 0.98331
v -0.25642 7.61497 -0.42376
v -0.29505 8.07793 -0.28471
v -0.32079 8.47455 0.29373
v -0.28813 8.50590 0.69506
v -0.22037 8.30357 1.17925
v -0.68941 7.47232 1.07037
v -0.65861 7.55152 1.15407
v -0.64801 7.72037 1.15591
v -0.71632 7.51738 0.97562
v -0.69549 7.62122 1.06116
v -0.68795 8.01698 0.12587
v -0.00046 8.36538 -0.07554
v -0.80139 7.60381 0.35284
v -0.17910 8.34124 -0.07697
v -0.32214 8.30932 -0.06057
v -0.40605 7.79705 -0.34616
v -0.51961 7.74935 -0.26350
v -0.73112 7.54175 0.08520
v -0.60833 7.68507 -0.13562
v -0.67863 7.61670 -0.02459
v 0.00013 7.86481 -0.41344
v -0.76237 7.46827 0.20479
v -0.14434 7.83986 -0.41058
v -0.27633 7.82612 -0.39508
v -0.46149 7.41057 -0.30807
v -0.00001 7.44218 -0.44660
v -0.36210 7.42293 -0.37625
v -0.11891 7.43532 -0.44300
v -0.24100 7.42834 -0.42487
v -0.74841 7.57347 0.86752
v -0.80389 7.67092 0.57713
v -0.79458 7.66218 0.66674
v -0.78170 7.63998 0.74471
v -0.75220 7.43894 0.81778
v -0.79475 7.54387 0.57799
v -0.78889 7.53639 0.64555
v -0.77544 7.51175 0.71460
v -0.78694 7.44390 0.58024
v -0.78282 7.43421 0.63058
v -0.61989 8.02133 1.06699
v -0.49389 8.11890 1.16213
v -0.71130 7.89187 0.96388
v -0.75786 7.75035 0.87611
v 0.00090 8.24988 1.29397
v -0.35511 8.18563 1.23086
v -0.08759 8.24456 1.28679
v -0.19938 8.22285 1.27301
v -0.76686 7.60747 0.80951
v -0.76357 7.47805 0.76646
v 0.18400 8.14338 1.34520
v 0.62792 7.67252 1.20863
v 0.58717 7.88455 1.20409
v 0.67138 7.77967 1.09867
v 0.70110 7.49026 1.02525
v 0.67610 7.58238 1.11146
v 0.73331 7.54312 0.92438
v 0.71905 7.66472 0.99796
v 0.73989 7.70550 0.93688
v 0.67180 7.44476 1.12294
v 0.63580 7.51526 1.20204
v 0.79488 7.49671 0.41354
v 0.58396 8.14364 0.03938
v 0.47552 8.25054 -0.02402
v 0.78486 7.73735 0.28245
v 0.74045 7.86955 0.20763
v 0.73827 7.41716 0.87036
v 0.78896 7.43763 0.52730
v 0.68695 8.13097 0.36986
v 0.46840 8.40106 0.30343
v 0.58766 8.27894 0.33512
v 0.41333 8.37234 0.94431
v 0.70095 7.43951 0.04952
v 0.64699 7.48821 -0.07216
v 0.57286 7.53022 -0.18531
v 0.48313 7.56361 -0.29968
v 0.38092 7.59183 -0.37768
v 0.78345 7.44482 0.33680
v 0.76103 7.64374 0.16471
v 0.71154 7.75079 0.06255
v 0.64693 7.85582 -0.04462
v 0.55456 7.96036 -0.16980
v 0.43402 8.03458 -0.24139
v 0.44402 8.43621 0.66934
v 0.57561 8.31787 0.64988
v 0.55284 8.27837 0.89587
v 0.69635 7.83940 1.03222
v 0.68086 8.16826 0.62439
v 0.75975 7.99414 0.59683
v 0.60582 7.95889 1.13526
v 0.75902 7.96657 0.40188
v 0.79878 7.80594 0.43915
v 0.79771 7.53512 0.50671
v 0.47823 8.04646 1.22927
v 0.33765 8.10818 1.30347
v 0.74399 7.97686 0.75627
v 0.66600 8.14293 0.82905
v 0.79520 7.82159 0.58135
v 0.78469 7.81387 0.70148
v 0.78523 7.53843 0.25879
v 0.80709 7.65404 0.48034
v 0.64406 8.08020 0.97903
v 0.72816 7.93628 0.87947
v 0.77575 7.78964 0.80020
v 0.52246 8.19679 1.06958
v 0.07245 8.15833 1.35686
v 0.37813 8.27106 1.13421
v 0.10295 8.31777 1.19540
v 0.15650 8.09794 -0.29952
v 0.13112 7.63201 -0.44183
v 0.15981 8.53115 0.69904
v 0.18297 8.51036 0.29454
v 0.12737 8.44673 0.99285
v 0.25402 8.42635 0.98352
v 0.25725 7.61542 -0.42353
v 0.29463 8.07793 -0.28486
v 0.31929 8.47489 0.29294
v 0.28768 8.50623 0.69368
v 0.22010 8.30267 1.18050
v 0.68787 7.46754 1.07463
v 0.65707 7.54674 1.15833
v 0.64811 7.72168 1.15551
v 0.71588 7.51510 0.97665
v 0.69537 7.62074 1.06149
v 0.68779 8.01856 0.12706
v 0.80126 7.60291 0.35172
v 0.17760 8.34144 -0.07710
v 0.32160 8.30925 -0.06098
v 0.40716 7.79733 -0.34545
v 0.51982 7.74922 -0.26329
v 0.73180 7.54239 0.08677
v 0.60742 7.68455 -0.13707
v 0.67854 7.61687 -0.02475
v 0.76306 7.46878 0.20685
v 0.14484 7.84010 -0.41047
v 0.27689 7.82632 -0.39487
v 0.45919 7.40905 -0.30961
v 0.36180 7.42275 -0.37640
v 0.11903 7.43538 -0.44299
v 0.24215 7.42898 -0.42459
v 0.74838 7.57362 0.86770
v 0.80388 7.67084 0.57714
v 0.79441 7.66259 0.66824
v 0.78142 7.64042 0.74647
v 0.75159 7.43914 0.82055
v 0.79474 7.54399 0.57831
v 0.78881 7.53683 0.64661
v 0.77528 7.51204 0.71571
v 0.78694 7.44397 0.58046
v 0.78279 7.43452 0.63121
v 0.62062 8.01740 1.06864
v 0.49444 8.11673 1.16323
v 0.71180 7.89031 0.96348
v 0.75828 7.75053 0.87459
v 0.35502 8.18548 1.23105
v 0.08840 8.24400 1.28715
v 0.19935 8.22287 1.27300
v 0.76657 7.60762 0.81089
v 0.76293 7.47831 0.76984
f 81 6 5 80
f 309 234 235 310
f 81 8 4 79
f 308 233 237 310
f 20 39 40 22
f 251 269 268 249
f 73 86 14 37
f 266 243 315 302
f 66 85 86 73
f 302 315 314 295
f 36 13 82 35
f 264 311 242 265
f 33 15 84 55
f 284 313 244 262
f 37 14 13 36
f 265 242 243 266
f 34 16 15 33
f 262 244 245 263
f 53 47 46 44
f 273 275 276 282
f 22 40 43 19
f 248 272 269 251
f 19 43 44 46
f 275 273 272 248
f 55 84 12 32
f 261 241 313 284
f 38 83 85 66
f 295 314 312 267
f 35 82 16 34
f 263 245 311 264
f 29 88 90 28
f 257 319 317 258
f 97 31 67 99
f 328 296 260 326
f 98 30 29 96
f 325 258 259 327
f 87 37 36 88
f 317 265 266 316
f 89 33 55 93
f 322 284 262 318
f 88 36 35 90
f 319 264 265 317
f 90 35 34 91
f 320 263 264 319
f 92 38 66 94
f 323 295 267 321
f 91 34 33 89
f 318 262 263 320
f 68 23 24 70
f 299 253 252 297
f 40 39 25 41
f 270 254 268 269
f 4 8 9 42
f 271 238 237 233
f 45 3 4 42
f 271 233 232 274
f 39 20 74 75
f 304 303 249 268
f 111 45 42 113
f 342 271 274 340
f 42 9 114 113
f 342 343 238 271
f 53 44 51 54
f 283 280 273 282
f 44 43 52 51
f 280 281 272 273
f 112 49 45 111
f 340 274 278 341
f 52 57 58 51
f 280 287 286 281
f 58 59 54 51
f 280 283 288 287
f 41 60 57 52
f 281 286 289 270
f 115 63 62 117
f 346 291 292 344
f 68 69 21 23
f 252 250 298 297
f 76 64 25 71
f 300 254 293 305
f 64 60 41 25
f 254 270 289 293
f 94 66 73 95
f 324 302 295 323
f 43 40 41 52
f 281 270 269 272
f 70 24 61 65
f 294 290 253 299
f 99 67 72 100
f 329 301 296 328
f 75 68 70 71
f 300 299 297 304
f 60 64 116 112
f 341 345 293 289
f 75 74 69 68
f 297 298 303 304
f 65 76 71 70
f 299 300 305 294
f 95 73 37 87
f 316 266 302 324
f 100 72 30 98
f 327 259 301 329
f 39 75 71 25
f 254 300 304 268
f 118 76 65 117
f 346 294 305 347
f 116 64 76 118
f 347 305 293 345
f 6 78 77 5
f 234 306 307 235
f 8 81 80 7
f 236 309 310 237
f 6 81 79 2
f 231 308 310 235
f 11 10 77 78
f 307 306 239 240
f 30 87 88 29
f 258 317 316 259
f 28 90 91 27
f 256 320 319 257
f 31 92 94 67
f 296 323 321 260
f 27 91 89 26
f 255 318 320 256
f 67 94 95 72
f 301 324 323 296
f 72 95 87 30
f 259 316 324 301
f 9 101 119 114
f 343 348 330 238
f 103 54 59 104
f 333 288 283 332
f 54 103 102 53
f 282 331 332 283
f 103 107 106 102
f 331 335 336 332
f 101 105 120 119
f 348 349 334 330
f 107 103 104 108
f 337 333 332 336
f 107 110 109 106
f 335 338 339 336
f 7 17 105 101
f 330 334 246 236
f 18 48 106 109
f 338 335 277 247
f 102 56 47 53
f 282 276 285 331
f 102 106 48 56
f 285 277 335 331
f 101 9 8 7
f 236 237 238 330
f 57 111 113 58
f 287 342 340 286
f 113 114 59 58
f 287 288 343 342
f 60 112 111 57
f 286 340 341 289
f 61 115 117 65
f 294 346 344 290
f 112 116 50 49
f 278 279 345 341
f 1 118 117 62
f 291 346 347 230
f 50 116 118 1
f 230 347 345 279
f 114 119 104 59
f 288 333 348 343
f 119 120 108 104
f 333 337 349 348
f 56 48 12 84
f 313 241 277 285
f 47 56 84 15
f 244 313 285 276
f 46 47 15 16
f 245 244 276 275
f 19 46 16 82
f 311 245 275 248
f 22 19 82 13
f 242 311 248 251
f 20 22 13 14
f 243 242 251 249
f 74 20 14 86
f 315 243 249 303
f 69 74 86 85
f 314 315 303 298
f 21 69 85 83
f 312 314 298 250
f 125 126 194 193
f 422 423 355 354
f 124 128 194 192
f 421 423 357 353
f 155 154 140 141
f 370 369 383 384
f 134 198 186 153
f 382 415 427 363
f 198 197 179 186
f 415 408 426 427
f 195 133 152 151
f 380 381 362 424
f 196 135 149 170
f 399 378 364 425
f 133 134 153 152
f 381 382 363 362
f 135 136 150 149
f 378 379 365 364
f 161 162 168 159
f 388 397 391 390
f 158 155 141 139
f 368 370 384 387
f 159 158 139 161
f 390 368 387 388
f 132 196 170 148
f 377 399 425 361
f 197 83 38 179
f 408 267 312 426
f 136 195 151 150
f 379 380 424 365
f 202 200 146 145
f 374 375 429 431
f 180 31 97 209
f 438 326 260 409
f 146 147 208 207
f 436 437 376 375
f 152 153 199 200
f 429 428 382 381
f 170 149 201 204
f 433 430 378 399
f 151 152 200 202
f 431 429 381 380
f 150 151 202 203
f 432 431 380 379
f 179 38 92 205
f 434 321 267 408
f 149 150 203 201
f 430 432 379 378
f 24 23 181 183
f 412 410 252 253
f 142 154 155 156
f 385 384 383 371
f 129 128 124 157
f 386 353 357 358
f 124 123 160 157
f 386 389 352 353
f 187 140 154 188
f 417 383 369 416
f 157 160 221 223
f 452 450 389 386
f 224 129 157 223
f 452 386 358 453
f 166 159 168 169
f 398 397 388 395
f 167 158 159 166
f 395 388 387 396
f 160 164 222 221
f 450 451 393 389
f 173 172 167 166
f 395 396 401 402
f 169 174 173 166
f 395 402 403 398
f 172 175 156 167
f 396 385 404 401
f 176 63 115 226
f 455 344 292 405
f 21 182 181 23
f 252 410 411 250
f 142 177 189 184
f 413 418 406 371
f 156 175 177 142
f 371 406 404 385
f 186 179 205 206
f 435 434 408 415
f 156 155 158 167
f 396 387 384 385
f 61 24 183 178
f 407 412 253 290
f 185 180 209 210
f 439 438 409 414
f 183 181 188 184
f 413 417 410 412
f 225 177 175 222
f 451 404 406 454
f 182 187 188 181
f 410 417 416 411
f 184 189 178 183
f 412 407 418 413
f 153 186 206 199
f 428 435 415 382
f 147 185 210 208
f 437 439 414 376
f 184 188 154 142
f 371 383 417 413
f 178 189 227 226
f 455 456 418 407
f 189 177 225 227
f 456 454 406 418
f 190 191 126 125
f 354 355 420 419
f 193 194 128 127
f 356 357 423 422
f 192 194 126 122
f 351 355 423 421
f 190 130 131 191
f 420 360 359 419
f 200 199 147 146
f 375 376 428 429
f 203 202 145 144
f 373 374 431 432
f 205 92 31 180
f 409 260 321 434
f 201 203 144 143
f 372 373 432 430
f 206 205 180 185
f 414 409 434 435
f 199 206 185 147
f 376 414 435 428
f 228 211 129 224
f 453 358 440 457
f 174 169 213 214
f 443 442 398 403
f 212 213 169 168
f 397 398 442 441
f 216 217 213 212
f 441 442 446 445
f 229 215 211 228
f 457 440 444 458
f 214 213 217 218
f 447 446 442 443
f 219 220 217 216
f 445 446 449 448
f 215 137 127 211
f 440 356 366 444
f 216 163 138 219
f 448 367 392 445
f 162 171 212 168
f 397 441 400 391
f 163 216 212 171
f 400 441 445 392
f 128 129 211 127
f 356 440 358 357
f 223 221 172 173
f 402 401 450 452
f 174 224 223 173
f 402 452 453 403
f 221 222 175 172
f 401 404 451 450
f 226 115 61 178
f 407 290 344 455
f 165 225 222 164
f 393 451 454 394
f 226 227 121 176
f 405 350 456 455
f 227 225 165 121
f 350 394 454 456
f 214 228 224 174
f 403 453 457 443
f 218 229 228 214
f 443 457 458 447
f 132 163 171 196
f 425 400 392 361
f 196 171 162 135
f 364 391 400 425
f 135 162 161 136
f 365 390 391 364
f 136 161 139 195
f 424 368 390 365
f 195 139 141 133
f 362 370 368 424
f 133 141 140 134
f 363 369 370 362
f 134 140 187 198
f 427 416 369 363
f 198 187 182 197
f 426 411 416 427
f 197 182 21 83
f 312 250 411 426
f 5 80 309 234
f 4 79 308 233
f 12 32 261 241
f 32 55 284 261
f 28 29 258 257
f 97 99 328 326
f 29 96 325 258
f 96 98 327 325
f 55 93 322 284
f 89 93 322 318
f 3 4 233 232
f 3 45 274 232
f 45 49 278 274
f 62 63 292 291
f 99 100 329 328
f 98 100 329 327
f 5 77 306 234
f 6 78 307 235
f 7 80 309 236
f 2 79 308 231
f 2 6 235 231
f 10 77 306 239
f 10 11 240 239
f 11 78 307 240
f 27 28 257 256
f 26 89 318 255
f 26 27 256 255
f 105 120 349 334
f 107 108 337 336
f 109 110 339 338
f 107 110 339 336
f 17 105 334 246
f 7 17 246 236
f 18 48 277 247
f 18 109 338 247
f 49 50 279 278
f 1 62 291 230
f 1 50 279 230
f 108 120 349 337
f 12 48 277 241
f 125 193 422 354
f 124 192 421 353
f 148 170 399 377
f 132 148 377 361
f 145 146 375 374
f 97 209 438 326
f 207 208 437 436
f 146 207 436 375
f 201 204 433 430
f 170 204 433 399
f 123 160 389 352
f 123 124 353 352
f 160 164 393 389
f 63 176 405 292
f 209 210 439 438
f 208 210 439 437
f 126 191 420 355
f 125 190 419 354
f 127 193 422 356
f 122 126 355 351
f 122 192 421 351
f 131 191 420 360
f 130 131 360 359
f 130 190 419 359
f 144 145 374 373
f 143 144 373 372
f 143 201 430 372
f 215 229 458 444
f 217 218 447 446
f 217 220 449 446
f 219 220 449 448
f 127 137 366 356
f 137 215 444 366
f 138 219 448 367
f 138 163 392 367
f 164 165 394 393
f 121 176 405 350
f 121 165 394 350
f 218 229 458 447
f 132 163 392 361
